<svg xmlns="http://www.w3.org/2000/svg" width="1080" height="1080" viewBox="0 0 1080 1080" version="1.1"><path d="M 367.607 315.726 C 367.283 316.051, 367.399 316.807, 367.865 317.408 C 368.331 318.009, 371.017 322.864, 373.833 328.199 C 376.650 333.533, 382.408 344.333, 386.629 352.199 C 395.269 368.299, 399.802 376.998, 415.964 408.500 C 422.172 420.600, 428.736 433.213, 430.551 436.529 L 433.851 442.558 424.175 432.967 C 406.981 415.923, 391.380 405.746, 370.670 398.063 C 352.769 391.422, 341.550 389.552, 319.500 389.532 C 303.263 389.517, 298.996 389.850, 290.156 391.823 C 257.949 399.014, 230.585 414.352, 209.914 436.803 C 186.679 462.038, 173.240 491.727, 169.335 526.451 C 166.057 555.601, 170.776 586.664, 182.133 610.698 C 199.214 646.843, 231.053 676.574, 268.500 691.347 C 285.574 698.083, 299.529 700.885, 320.070 701.700 C 342.902 702.606, 363.370 699.847, 382 693.354 C 393.836 689.228, 416.592 677.821, 427.232 670.680 C 446.017 658.070, 480.211 627.251, 491.204 613.020 C 494.117 609.249, 501.026 601.064, 506.557 594.832 C 525.346 573.661, 555.025 533.542, 583.738 490.500 C 588.874 482.800, 593.911 475.150, 594.930 473.500 C 595.950 471.850, 598.035 468.475, 599.564 466 C 607.894 452.516, 617.083 435.777, 628.659 413 C 635.787 398.975, 649.804 371.413, 659.809 351.750 C 669.813 332.087, 677.628 316, 677.174 316 C 676.720 316, 675.258 317.178, 673.924 318.617 C 672.591 320.057, 664.975 326.462, 657 332.852 C 643.522 343.650, 623.924 361.759, 613.009 373.500 C 595.709 392.109, 572.915 420.792, 560.447 439.642 C 556.133 446.164, 549.445 455.775, 545.585 461 C 541.725 466.225, 534.719 476.125, 530.017 483 C 506.542 517.321, 477.615 556.508, 457.306 581.500 C 442.495 599.725, 410.412 629.958, 394.500 640.684 C 378.191 651.678, 358.604 658.787, 338.258 661.098 C 305.845 664.779, 266.540 650.190, 242.623 625.602 C 227.187 609.731, 218.042 593.242, 211.787 570 C 209.779 562.538, 209.507 559.240, 209.555 543 C 209.608 525.173, 209.727 524.100, 212.838 513.500 C 222.651 480.061, 242.820 455.404, 272.351 440.746 C 281.466 436.221, 292.040 433.225, 305.500 431.354 C 315.637 429.945, 319.136 429.865, 328.035 430.842 C 350.976 433.359, 368.994 440.821, 386.500 455.054 C 394.450 461.518, 398.424 465.677, 416 485.936 C 427.493 499.182, 435.292 508.595, 455.615 533.750 C 459.726 538.837, 463.658 543, 464.353 543 C 466.614 543, 468.680 540.694, 477.659 528.148 C 482.522 521.354, 488.525 512.964, 491 509.503 C 493.475 506.042, 498.371 499.225, 501.880 494.355 C 505.390 489.485, 508.687 484.570, 509.208 483.433 C 510.540 480.524, 509.042 477.585, 498.247 461.924 C 493.158 454.541, 484.032 441.075, 477.967 432 C 464.142 411.311, 462.123 408.493, 451.303 394.773 C 432.526 370.964, 420.779 359.479, 380.271 325.318 C 373.630 319.718, 367.931 315.402, 367.607 315.726 M 714.500 389.618 C 673.764 395.831, 647.758 409.477, 624.276 436.960 C 618.762 443.413, 614.927 449.989, 610.839 460 C 610.278 461.375, 608.954 464.173, 607.898 466.218 C 605.242 471.360, 603.536 484.593, 605.251 486.750 C 605.921 487.593, 605.891 488, 605.158 488 C 603.349 488, 601.637 492.037, 602.907 493.307 C 603.698 494.098, 604 494.022, 604 493.033 C 604 492.282, 604.289 491.956, 604.643 492.309 C 604.996 492.663, 604.658 493.706, 603.893 494.629 C 602.362 496.472, 602.071 498.234, 601.641 508.249 C 601.432 513.121, 600.816 515.646, 599.426 517.330 C 598.366 518.612, 602.627 514.226, 608.894 507.581 C 626.693 488.709, 656.708 459.404, 665.270 452.538 C 673.598 445.860, 685.729 439.356, 697.322 435.354 C 714.133 429.551, 741.969 429.868, 759.064 436.059 C 788.316 446.652, 808.759 464.573, 822.965 492.079 C 831.591 508.780, 834.574 524.386, 833.724 548.357 C 833.100 565.952, 830.374 578.084, 823.961 591.804 C 815.711 609.453, 809.175 618.432, 795.334 631.131 C 785.435 640.214, 783.297 641.702, 769.920 648.827 C 748.302 660.342, 726.373 664.230, 701.322 660.988 C 678.846 658.079, 655.129 647.258, 634 630.272 C 626.813 624.495, 604.586 602.663, 589.678 586.739 C 576.036 572.166, 572.934 570.366, 563.019 571.265 C 555.278 571.966, 551.733 574.243, 543.034 584.100 C 536.420 591.592, 536.062 592.239, 537.256 594.518 C 539.212 598.252, 558.234 618.967, 566.275 626.120 C 570.220 629.629, 578.591 637.335, 584.878 643.245 C 620.598 676.818, 656.629 695.841, 695.128 701.451 C 725.080 705.816, 757.985 700.576, 784.563 687.208 C 816.259 671.266, 838.412 649.603, 855.333 618 C 869.575 591.400, 875.870 560.111, 873.176 529.304 C 871.178 506.445, 865.168 487.444, 853.248 466.290 C 844.706 451.132, 837.164 441.316, 825.365 430 C 812.948 418.093, 804.645 412.133, 790.425 404.920 C 770.652 394.891, 752.104 390.125, 730.500 389.523 C 723.350 389.323, 716.150 389.366, 714.500 389.618" stroke="none" fill="#04c957" fill-rule="evenodd"/><path d="M 483.500 0.634 C 382.889 8.402, 288.958 43.382, 209.500 102.671 C 162.489 137.750, 119.876 182.417, 88.027 230 C 37.087 306.106, 7.667 391.846, 0.937 483.809 C -0.585 504.597, 0.245 556.328, 2.406 575.452 C 12.716 666.689, 44.279 749.671, 96.560 822.993 C 119.482 855.140, 154.040 892.793, 183 917.174 C 255.591 978.288, 337.441 1016.727, 430.500 1033.405 C 486.617 1043.463, 552.311 1043.469, 610 1033.421 C 703.244 1017.181, 787.127 977.376, 861.564 914.047 C 874.846 902.747, 902.155 875.333, 914.907 860.500 C 981.529 783.006, 1024.169 687.297, 1036.977 586.500 C 1041.507 550.854, 1042.150 500.917, 1038.517 467 C 1027.127 360.672, 985.497 263.491, 916.581 182.355 C 902.740 166.059, 874.220 137.594, 858 123.887 C 790.452 66.804, 712.505 28.575, 627 10.594 C 590.771 2.975, 569.164 0.829, 525.500 0.515 C 505.150 0.368, 486.250 0.422, 483.500 0.634 M 367.607 315.726 C 367.283 316.051, 367.399 316.807, 367.865 317.408 C 368.331 318.009, 371.017 322.864, 373.833 328.199 C 376.650 333.533, 382.408 344.333, 386.629 352.199 C 395.269 368.299, 399.802 376.998, 415.964 408.500 C 422.172 420.600, 428.736 433.213, 430.551 436.529 L 433.851 442.558 424.175 432.967 C 406.981 415.923, 391.380 405.746, 370.670 398.063 C 352.769 391.422, 341.550 389.552, 319.500 389.532 C 303.263 389.517, 298.996 389.850, 290.156 391.823 C 257.949 399.014, 230.585 414.352, 209.914 436.803 C 186.679 462.038, 173.240 491.727, 169.335 526.451 C 166.057 555.601, 170.776 586.664, 182.133 610.698 C 199.214 646.843, 231.053 676.574, 268.500 691.347 C 285.574 698.083, 299.529 700.885, 320.070 701.700 C 342.902 702.606, 363.370 699.847, 382 693.354 C 393.836 689.228, 416.592 677.821, 427.232 670.680 C 446.017 658.070, 480.211 627.251, 491.204 613.020 C 494.117 609.249, 501.026 601.064, 506.557 594.832 C 525.346 573.661, 555.025 533.542, 583.738 490.500 C 588.874 482.800, 593.911 475.150, 594.930 473.500 C 595.950 471.850, 598.035 468.475, 599.564 466 C 607.894 452.516, 617.083 435.777, 628.659 413 C 635.787 398.975, 649.804 371.413, 659.809 351.750 C 669.813 332.087, 677.628 316, 677.174 316 C 676.720 316, 675.258 317.178, 673.924 318.617 C 672.591 320.057, 664.975 326.462, 657 332.852 C 643.522 343.650, 623.924 361.759, 613.009 373.500 C 595.709 392.109, 572.915 420.792, 560.447 439.642 C 556.133 446.164, 549.445 455.775, 545.585 461 C 541.725 466.225, 534.719 476.125, 530.017 483 C 506.542 517.321, 477.615 556.508, 457.306 581.500 C 442.495 599.725, 410.412 629.958, 394.500 640.684 C 378.191 651.678, 358.604 658.787, 338.258 661.098 C 305.845 664.779, 266.540 650.190, 242.623 625.602 C 227.187 609.731, 218.042 593.242, 211.787 570 C 209.779 562.538, 209.507 559.240, 209.555 543 C 209.608 525.173, 209.727 524.100, 212.838 513.500 C 222.651 480.061, 242.820 455.404, 272.351 440.746 C 281.466 436.221, 292.040 433.225, 305.500 431.354 C 315.637 429.945, 319.136 429.865, 328.035 430.842 C 350.976 433.359, 368.994 440.821, 386.500 455.054 C 394.450 461.518, 398.424 465.677, 416 485.936 C 427.493 499.182, 435.292 508.595, 455.615 533.750 C 459.726 538.837, 463.658 543, 464.353 543 C 466.614 543, 468.680 540.694, 477.659 528.148 C 482.522 521.354, 488.525 512.964, 491 509.503 C 493.475 506.042, 498.371 499.225, 501.880 494.355 C 505.390 489.485, 508.687 484.570, 509.208 483.433 C 510.540 480.524, 509.042 477.585, 498.247 461.924 C 493.158 454.541, 484.032 441.075, 477.967 432 C 464.142 411.311, 462.123 408.493, 451.303 394.773 C 432.526 370.964, 420.779 359.479, 380.271 325.318 C 373.630 319.718, 367.931 315.402, 367.607 315.726 M 714.500 389.618 C 673.764 395.831, 647.758 409.477, 624.276 436.960 C 618.762 443.413, 614.927 449.989, 610.839 460 C 610.278 461.375, 608.954 464.173, 607.898 466.218 C 605.242 471.360, 603.536 484.593, 605.251 486.750 C 605.921 487.593, 605.891 488, 605.158 488 C 603.349 488, 601.637 492.037, 602.907 493.307 C 603.698 494.098, 604 494.022, 604 493.033 C 604 492.282, 604.289 491.956, 604.643 492.309 C 604.996 492.663, 604.658 493.706, 603.893 494.629 C 602.362 496.472, 602.071 498.234, 601.641 508.249 C 601.432 513.121, 600.816 515.646, 599.426 517.330 C 598.366 518.612, 602.627 514.226, 608.894 507.581 C 626.693 488.709, 656.708 459.404, 665.270 452.538 C 673.598 445.860, 685.729 439.356, 697.322 435.354 C 714.133 429.551, 741.969 429.868, 759.064 436.059 C 788.316 446.652, 808.759 464.573, 822.965 492.079 C 831.591 508.780, 834.574 524.386, 833.724 548.357 C 833.100 565.952, 830.374 578.084, 823.961 591.804 C 815.711 609.453, 809.175 618.432, 795.334 631.131 C 785.435 640.214, 783.297 641.702, 769.920 648.827 C 748.302 660.342, 726.373 664.230, 701.322 660.988 C 678.846 658.079, 655.129 647.258, 634 630.272 C 626.813 624.495, 604.586 602.663, 589.678 586.739 C 576.036 572.166, 572.934 570.366, 563.019 571.265 C 555.278 571.966, 551.733 574.243, 543.034 584.100 C 536.420 591.592, 536.062 592.239, 537.256 594.518 C 539.212 598.252, 558.234 618.967, 566.275 626.120 C 570.220 629.629, 578.591 637.335, 584.878 643.245 C 620.598 676.818, 656.629 695.841, 695.128 701.451 C 725.080 705.816, 757.985 700.576, 784.563 687.208 C 816.259 671.266, 838.412 649.603, 855.333 618 C 869.575 591.400, 875.870 560.111, 873.176 529.304 C 871.178 506.445, 865.168 487.444, 853.248 466.290 C 844.706 451.132, 837.164 441.316, 825.365 430 C 812.948 418.093, 804.645 412.133, 790.425 404.920 C 770.652 394.891, 752.104 390.125, 730.500 389.523 C 723.350 389.323, 716.150 389.366, 714.500 389.618" stroke="none" fill="#042d0f" fill-rule="evenodd"/></svg>